<mxfile host="app.diagrams.net" modified="2020-11-27T01:17:37.549Z" agent="5.0 (Windows)" etag="C-0m6sQmBD1W7mt6tm7H" compressed="false" version="13.10.3" type="github">
  <diagram id="uD6p33Z857GaYZzYAN43" name="Page-1">
    <mxGraphModel dx="1372" dy="1153" grid="1" gridSize="10" guides="0" tooltips="1" connect="1" arrows="1" fold="1" page="0" pageScale="1" pageWidth="850" pageHeight="1100" math="0" shadow="0">
      <root>
        <mxCell id="0" />
        <mxCell id="1" parent="0" />
        <mxCell id="3ByCjqJIBNXzOxceq1T8-34" value="" style="group" vertex="1" connectable="0" parent="1">
          <mxGeometry x="1920" y="140" width="100" height="90" as="geometry" />
        </mxCell>
        <mxCell id="3ByCjqJIBNXzOxceq1T8-36" value="" style="group" vertex="1" connectable="0" parent="3ByCjqJIBNXzOxceq1T8-34">
          <mxGeometry y="-10" width="100" height="90" as="geometry" />
        </mxCell>
        <mxCell id="3ByCjqJIBNXzOxceq1T8-11" value="" style="verticalLabelPosition=bottom;shadow=0;dashed=0;align=center;html=1;verticalAlign=top;shape=mxgraph.electrical.logic_gates.d_type_flip-flop_with_clear;" vertex="1" parent="3ByCjqJIBNXzOxceq1T8-36">
          <mxGeometry width="100" height="90" as="geometry" />
        </mxCell>
        <mxCell id="3ByCjqJIBNXzOxceq1T8-35" value="6b" style="text;html=1;strokeColor=none;fillColor=none;align=center;verticalAlign=middle;whiteSpace=wrap;rounded=0;" vertex="1" parent="3ByCjqJIBNXzOxceq1T8-36">
          <mxGeometry x="30" y="35" width="40" height="20" as="geometry" />
        </mxCell>
        <mxCell id="3ByCjqJIBNXzOxceq1T8-33" value="EN" style="rounded=0;whiteSpace=wrap;html=1;" vertex="1" parent="3ByCjqJIBNXzOxceq1T8-36">
          <mxGeometry x="40" y="70" width="20" height="20" as="geometry" />
        </mxCell>
        <mxCell id="gU50jgJ4w8s5qQlBn3Q9-7" value="" style="group" parent="1" vertex="1" connectable="0">
          <mxGeometry x="170" y="320" width="110" height="40" as="geometry" />
        </mxCell>
        <mxCell id="gU50jgJ4w8s5qQlBn3Q9-5" value="" style="shape=offPageConnector;whiteSpace=wrap;html=1;rotation=-90;size=0.5;" parent="gU50jgJ4w8s5qQlBn3Q9-7" vertex="1">
          <mxGeometry x="150" width="40" height="40" as="geometry" />
        </mxCell>
        <mxCell id="gU50jgJ4w8s5qQlBn3Q9-10" value="" style="group" parent="1" vertex="1" connectable="0">
          <mxGeometry x="400" y="180" width="40" height="60" as="geometry" />
        </mxCell>
        <mxCell id="gU50jgJ4w8s5qQlBn3Q9-8" value="" style="rounded=0;whiteSpace=wrap;html=1;" parent="gU50jgJ4w8s5qQlBn3Q9-10" vertex="1">
          <mxGeometry y="20" width="40" height="40" as="geometry" />
        </mxCell>
        <mxCell id="gU50jgJ4w8s5qQlBn3Q9-11" value="" style="group" parent="1" vertex="1" connectable="0">
          <mxGeometry x="400" y="300" width="40" height="60" as="geometry" />
        </mxCell>
        <mxCell id="gU50jgJ4w8s5qQlBn3Q9-12" value="" style="rounded=0;whiteSpace=wrap;html=1;" parent="gU50jgJ4w8s5qQlBn3Q9-11" vertex="1">
          <mxGeometry y="20" width="40" height="40" as="geometry" />
        </mxCell>
        <mxCell id="gU50jgJ4w8s5qQlBn3Q9-17" value="" style="group" parent="1" vertex="1" connectable="0">
          <mxGeometry x="170" y="200" width="110" height="40" as="geometry" />
        </mxCell>
        <mxCell id="gU50jgJ4w8s5qQlBn3Q9-18" value="" style="shape=offPageConnector;whiteSpace=wrap;html=1;rotation=-90;size=0.5;" parent="gU50jgJ4w8s5qQlBn3Q9-17" vertex="1">
          <mxGeometry x="150" width="40" height="40" as="geometry" />
        </mxCell>
        <mxCell id="gU50jgJ4w8s5qQlBn3Q9-26" value="" style="group" parent="gU50jgJ4w8s5qQlBn3Q9-17" vertex="1" connectable="0">
          <mxGeometry y="-80" width="110" height="40" as="geometry" />
        </mxCell>
        <mxCell id="gU50jgJ4w8s5qQlBn3Q9-27" value="" style="shape=offPageConnector;whiteSpace=wrap;html=1;rotation=-90;size=0.5;" parent="gU50jgJ4w8s5qQlBn3Q9-26" vertex="1">
          <mxGeometry x="150" width="40" height="40" as="geometry" />
        </mxCell>
        <mxCell id="gU50jgJ4w8s5qQlBn3Q9-35" value="" style="group" parent="1" vertex="1" connectable="0">
          <mxGeometry x="170" y="40" width="110" height="40" as="geometry" />
        </mxCell>
        <mxCell id="gU50jgJ4w8s5qQlBn3Q9-36" value="" style="shape=offPageConnector;whiteSpace=wrap;html=1;rotation=-90;size=0.5;" parent="gU50jgJ4w8s5qQlBn3Q9-35" vertex="1">
          <mxGeometry x="150" width="40" height="40" as="geometry" />
        </mxCell>
        <mxCell id="gU50jgJ4w8s5qQlBn3Q9-44" style="edgeStyle=orthogonalEdgeStyle;rounded=0;orthogonalLoop=1;jettySize=auto;html=1;exitX=1;exitY=0.5;exitDx=0;exitDy=0;entryX=0;entryY=0.5;entryDx=0;entryDy=0;" parent="1" source="gU50jgJ4w8s5qQlBn3Q9-24" target="gU50jgJ4w8s5qQlBn3Q9-85" edge="1">
          <mxGeometry relative="1" as="geometry">
            <mxPoint x="740" y="360" as="targetPoint" />
            <Array as="points">
              <mxPoint x="1040" y="880" />
              <mxPoint x="1040" y="580" />
              <mxPoint x="840" y="580" />
              <mxPoint x="840" y="360" />
            </Array>
          </mxGeometry>
        </mxCell>
        <mxCell id="gU50jgJ4w8s5qQlBn3Q9-60" value="in2[15...0] = in1[15...0] = bcd[15...0]" style="edgeLabel;html=1;align=center;verticalAlign=middle;resizable=0;points=[];" parent="gU50jgJ4w8s5qQlBn3Q9-44" vertex="1" connectable="0">
          <mxGeometry x="-0.6333" y="1" relative="1" as="geometry">
            <mxPoint x="0.9400000000000013" y="-9.530000000000001" as="offset" />
          </mxGeometry>
        </mxCell>
        <mxCell id="gU50jgJ4w8s5qQlBn3Q9-38" value="in" style="edgeStyle=orthogonalEdgeStyle;rounded=0;orthogonalLoop=1;jettySize=auto;html=1;exitX=0.5;exitY=1;exitDx=0;exitDy=0;entryX=0;entryY=0.5;entryDx=0;entryDy=0;" parent="1" source="gU50jgJ4w8s5qQlBn3Q9-5" target="gU50jgJ4w8s5qQlBn3Q9-12" edge="1">
          <mxGeometry relative="1" as="geometry" />
        </mxCell>
        <mxCell id="gU50jgJ4w8s5qQlBn3Q9-39" style="edgeStyle=orthogonalEdgeStyle;rounded=0;orthogonalLoop=1;jettySize=auto;html=1;exitX=0.5;exitY=1;exitDx=0;exitDy=0;entryX=0;entryY=0.5;entryDx=0;entryDy=0;" parent="1" source="gU50jgJ4w8s5qQlBn3Q9-18" target="gU50jgJ4w8s5qQlBn3Q9-8" edge="1">
          <mxGeometry relative="1" as="geometry" />
        </mxCell>
        <mxCell id="gU50jgJ4w8s5qQlBn3Q9-41" style="edgeStyle=orthogonalEdgeStyle;rounded=0;orthogonalLoop=1;jettySize=auto;html=1;exitX=0.5;exitY=1;exitDx=0;exitDy=0;entryX=0;entryY=0.5;entryDx=0;entryDy=0;" parent="1" source="gU50jgJ4w8s5qQlBn3Q9-27" target="gU50jgJ4w8s5qQlBn3Q9-24" edge="1">
          <mxGeometry relative="1" as="geometry">
            <mxPoint x="430" y="460" as="targetPoint" />
            <Array as="points">
              <mxPoint x="600" y="140" />
              <mxPoint x="600" y="590" />
              <mxPoint x="900" y="590" />
              <mxPoint x="900" y="880" />
            </Array>
          </mxGeometry>
        </mxCell>
        <mxCell id="gU50jgJ4w8s5qQlBn3Q9-73" value="reset_n" style="edgeLabel;html=1;align=center;verticalAlign=middle;resizable=0;points=[];" parent="gU50jgJ4w8s5qQlBn3Q9-41" vertex="1" connectable="0">
          <mxGeometry x="0.85" y="2" relative="1" as="geometry">
            <mxPoint x="28" y="40" as="offset" />
          </mxGeometry>
        </mxCell>
        <mxCell id="gU50jgJ4w8s5qQlBn3Q9-42" style="edgeStyle=orthogonalEdgeStyle;rounded=0;orthogonalLoop=1;jettySize=auto;html=1;exitX=0.5;exitY=1;exitDx=0;exitDy=0;entryX=0;entryY=0.25;entryDx=0;entryDy=0;" parent="1" source="gU50jgJ4w8s5qQlBn3Q9-36" target="gU50jgJ4w8s5qQlBn3Q9-24" edge="1">
          <mxGeometry relative="1" as="geometry">
            <Array as="points">
              <mxPoint x="500" y="60" />
              <mxPoint x="500" y="600" />
              <mxPoint x="920" y="600" />
              <mxPoint x="920" y="860" />
            </Array>
          </mxGeometry>
        </mxCell>
        <mxCell id="gU50jgJ4w8s5qQlBn3Q9-74" value="clk" style="edgeLabel;html=1;align=center;verticalAlign=middle;resizable=0;points=[];" parent="gU50jgJ4w8s5qQlBn3Q9-42" vertex="1" connectable="0">
          <mxGeometry x="0.8703" y="1" relative="1" as="geometry">
            <mxPoint x="19" y="51" as="offset" />
          </mxGeometry>
        </mxCell>
        <mxCell id="gU50jgJ4w8s5qQlBn3Q9-46" style="edgeStyle=orthogonalEdgeStyle;rounded=0;orthogonalLoop=1;jettySize=auto;html=1;exitX=1;exitY=0.5;exitDx=0;exitDy=0;entryX=0;entryY=0.5;entryDx=0;entryDy=0;" parent="1" source="gU50jgJ4w8s5qQlBn3Q9-12" target="gU50jgJ4w8s5qQlBn3Q9-87" edge="1">
          <mxGeometry relative="1" as="geometry">
            <mxPoint x="740" y="340" as="targetPoint" />
          </mxGeometry>
        </mxCell>
        <mxCell id="gU50jgJ4w8s5qQlBn3Q9-51" value="&lt;div&gt;in1[15...0] = sync_out[9...0] OR 16&#39;h0000&lt;br&gt;&lt;/div&gt;" style="edgeLabel;html=1;align=center;verticalAlign=middle;resizable=0;points=[];" parent="gU50jgJ4w8s5qQlBn3Q9-46" vertex="1" connectable="0">
          <mxGeometry x="0.4077" relative="1" as="geometry">
            <mxPoint x="28.240000000000002" as="offset" />
          </mxGeometry>
        </mxCell>
        <mxCell id="gU50jgJ4w8s5qQlBn3Q9-48" style="edgeStyle=orthogonalEdgeStyle;rounded=0;orthogonalLoop=1;jettySize=auto;html=1;exitX=1;exitY=0.5;exitDx=0;exitDy=0;entryX=0;entryY=0.5;entryDx=0;entryDy=0;" parent="1" source="gU50jgJ4w8s5qQlBn3Q9-12" target="gU50jgJ4w8s5qQlBn3Q9-43" edge="1">
          <mxGeometry relative="1" as="geometry">
            <Array as="points">
              <mxPoint x="640" y="340" />
              <mxPoint x="640" y="260" />
              <mxPoint x="920" y="260" />
              <mxPoint x="920" y="290" />
            </Array>
          </mxGeometry>
        </mxCell>
        <mxCell id="gU50jgJ4w8s5qQlBn3Q9-50" value="s = sync_out[9...8]" style="edgeLabel;html=1;align=center;verticalAlign=middle;resizable=0;points=[];" parent="gU50jgJ4w8s5qQlBn3Q9-48" vertex="1" connectable="0">
          <mxGeometry x="0.1926" relative="1" as="geometry">
            <mxPoint x="197" y="10" as="offset" />
          </mxGeometry>
        </mxCell>
        <mxCell id="gU50jgJ4w8s5qQlBn3Q9-54" value="sync_out[9...0]" style="edgeLabel;html=1;align=center;verticalAlign=middle;resizable=0;points=[];" parent="gU50jgJ4w8s5qQlBn3Q9-48" vertex="1" connectable="0">
          <mxGeometry x="-0.9587" y="2" relative="1" as="geometry">
            <mxPoint x="31" as="offset" />
          </mxGeometry>
        </mxCell>
        <mxCell id="gU50jgJ4w8s5qQlBn3Q9-53" value="" style="group" parent="1" vertex="1" connectable="0">
          <mxGeometry x="880" y="300" width="120" height="100" as="geometry" />
        </mxCell>
        <mxCell id="gU50jgJ4w8s5qQlBn3Q9-43" value="" style="shape=trapezoid;perimeter=trapezoidPerimeter;whiteSpace=wrap;html=1;fixedSize=1;rotation=90;" parent="gU50jgJ4w8s5qQlBn3Q9-53" vertex="1">
          <mxGeometry x="-8.75" y="8.75" width="100" height="42.5" as="geometry" />
        </mxCell>
        <mxCell id="gU50jgJ4w8s5qQlBn3Q9-49" value="&lt;b&gt;16b 4-1 Mux&lt;/b&gt;" style="text;html=1;strokeColor=none;fillColor=none;align=center;verticalAlign=middle;whiteSpace=wrap;rounded=0;" parent="gU50jgJ4w8s5qQlBn3Q9-53" vertex="1">
          <mxGeometry y="80" width="80" height="20" as="geometry" />
        </mxCell>
        <mxCell id="gU50jgJ4w8s5qQlBn3Q9-84" value="01" style="text;whiteSpace=wrap;html=1;align=left;" parent="gU50jgJ4w8s5qQlBn3Q9-53" vertex="1">
          <mxGeometry x="20" y="30" width="40" height="20" as="geometry" />
        </mxCell>
        <mxCell id="gU50jgJ4w8s5qQlBn3Q9-85" value="00" style="text;whiteSpace=wrap;html=1;align=left;" parent="gU50jgJ4w8s5qQlBn3Q9-53" vertex="1">
          <mxGeometry x="20" y="50" width="40" height="20" as="geometry" />
        </mxCell>
        <mxCell id="gU50jgJ4w8s5qQlBn3Q9-86" value="10" style="text;whiteSpace=wrap;html=1;align=left;" parent="gU50jgJ4w8s5qQlBn3Q9-53" vertex="1">
          <mxGeometry x="20" y="10" width="40" height="20" as="geometry" />
        </mxCell>
        <mxCell id="gU50jgJ4w8s5qQlBn3Q9-87" value="11" style="text;whiteSpace=wrap;html=1;align=left;" parent="gU50jgJ4w8s5qQlBn3Q9-53" vertex="1">
          <mxGeometry x="20" y="-10" width="40" height="20" as="geometry" />
        </mxCell>
        <mxCell id="gU50jgJ4w8s5qQlBn3Q9-6" value="&lt;b&gt;SW[9..0]&lt;/b&gt;" style="text;html=1;strokeColor=none;fillColor=none;align=center;verticalAlign=middle;whiteSpace=wrap;rounded=0;" parent="1" vertex="1">
          <mxGeometry x="260" y="330" width="60" height="20" as="geometry" />
        </mxCell>
        <mxCell id="gU50jgJ4w8s5qQlBn3Q9-19" value="&lt;b&gt;KEY[0]&lt;/b&gt;" style="text;html=1;strokeColor=none;fillColor=none;align=center;verticalAlign=middle;whiteSpace=wrap;rounded=0;" parent="1" vertex="1">
          <mxGeometry x="260" y="210" width="60" height="20" as="geometry" />
        </mxCell>
        <mxCell id="gU50jgJ4w8s5qQlBn3Q9-28" value="&lt;b&gt;reset_n&lt;/b&gt;" style="text;html=1;strokeColor=none;fillColor=none;align=center;verticalAlign=middle;whiteSpace=wrap;rounded=0;" parent="1" vertex="1">
          <mxGeometry x="260" y="130" width="60" height="20" as="geometry" />
        </mxCell>
        <mxCell id="gU50jgJ4w8s5qQlBn3Q9-37" value="&lt;b&gt;clk&lt;/b&gt;" style="text;html=1;strokeColor=none;fillColor=none;align=center;verticalAlign=middle;whiteSpace=wrap;rounded=0;" parent="1" vertex="1">
          <mxGeometry x="260" y="50" width="60" height="20" as="geometry" />
        </mxCell>
        <mxCell id="gU50jgJ4w8s5qQlBn3Q9-91" style="edgeStyle=orthogonalEdgeStyle;rounded=0;orthogonalLoop=1;jettySize=auto;html=1;exitX=0.5;exitY=0;exitDx=0;exitDy=0;entryX=0;entryY=0.335;entryDx=0;entryDy=0;entryPerimeter=0;" parent="1" source="gU50jgJ4w8s5qQlBn3Q9-43" target="3ByCjqJIBNXzOxceq1T8-54" edge="1">
          <mxGeometry relative="1" as="geometry">
            <mxPoint x="1240" y="310.1500000000001" as="targetPoint" />
          </mxGeometry>
        </mxCell>
        <mxCell id="gU50jgJ4w8s5qQlBn3Q9-96" value="&lt;div&gt;in2[5...0] =&lt;/div&gt;&lt;div&gt;mux_out[15...0]&lt;/div&gt;" style="edgeLabel;html=1;align=center;verticalAlign=middle;resizable=0;points=[];" parent="gU50jgJ4w8s5qQlBn3Q9-91" vertex="1" connectable="0">
          <mxGeometry x="-0.2786" y="-2" relative="1" as="geometry">
            <mxPoint x="12.5" y="-2" as="offset" />
          </mxGeometry>
        </mxCell>
        <mxCell id="gU50jgJ4w8s5qQlBn3Q9-13" value="&lt;b&gt;Synchronizer&lt;/b&gt;" style="text;html=1;strokeColor=none;fillColor=none;align=center;verticalAlign=middle;whiteSpace=wrap;rounded=0;" parent="1" vertex="1">
          <mxGeometry x="400" y="360" width="40" height="20" as="geometry" />
        </mxCell>
        <mxCell id="gU50jgJ4w8s5qQlBn3Q9-9" value="&lt;b&gt;Debounce&lt;/b&gt;" style="text;html=1;strokeColor=none;fillColor=none;align=center;verticalAlign=middle;whiteSpace=wrap;rounded=0;" parent="1" vertex="1">
          <mxGeometry x="400" y="240" width="40" height="20" as="geometry" />
        </mxCell>
        <mxCell id="gU50jgJ4w8s5qQlBn3Q9-109" style="edgeStyle=orthogonalEdgeStyle;rounded=0;orthogonalLoop=1;jettySize=auto;html=1;exitX=0.5;exitY=1;exitDx=0;exitDy=0;entryX=0.5;entryY=0;entryDx=0;entryDy=0;" parent="1" source="gU50jgJ4w8s5qQlBn3Q9-36" target="gU50jgJ4w8s5qQlBn3Q9-8" edge="1">
          <mxGeometry relative="1" as="geometry" />
        </mxCell>
        <mxCell id="gU50jgJ4w8s5qQlBn3Q9-112" value="clk" style="edgeLabel;html=1;align=center;verticalAlign=middle;resizable=0;points=[];" parent="gU50jgJ4w8s5qQlBn3Q9-109" vertex="1" connectable="0">
          <mxGeometry x="0.7407" relative="1" as="geometry">
            <mxPoint x="-0.01" y="6.24" as="offset" />
          </mxGeometry>
        </mxCell>
        <mxCell id="gU50jgJ4w8s5qQlBn3Q9-110" style="edgeStyle=orthogonalEdgeStyle;rounded=0;orthogonalLoop=1;jettySize=auto;html=1;exitX=0.5;exitY=1;exitDx=0;exitDy=0;entryX=0.5;entryY=0;entryDx=0;entryDy=0;" parent="1" source="gU50jgJ4w8s5qQlBn3Q9-36" target="gU50jgJ4w8s5qQlBn3Q9-12" edge="1">
          <mxGeometry relative="1" as="geometry">
            <Array as="points">
              <mxPoint x="380" y="60" />
              <mxPoint x="380" y="280" />
              <mxPoint x="420" y="280" />
            </Array>
          </mxGeometry>
        </mxCell>
        <mxCell id="gU50jgJ4w8s5qQlBn3Q9-111" value="clk" style="edgeLabel;html=1;align=center;verticalAlign=middle;resizable=0;points=[];" parent="gU50jgJ4w8s5qQlBn3Q9-110" vertex="1" connectable="0">
          <mxGeometry x="0.8164" y="-1" relative="1" as="geometry">
            <mxPoint x="0.97" y="9.69" as="offset" />
          </mxGeometry>
        </mxCell>
        <mxCell id="n296q5T5DC8cIZGj2IhT-1" value="Notes on distance sensor:&lt;br&gt;Distance is between 0 and 40cm on datasheet.&lt;br&gt;&lt;div&gt;Voltage is between 0 and 3V on datasheet.&lt;/div&gt;" style="text;html=1;align=center;verticalAlign=middle;resizable=0;points=[];autosize=1;" parent="1" vertex="1">
          <mxGeometry x="850" y="940" width="260" height="50" as="geometry" />
        </mxCell>
        <mxCell id="n296q5T5DC8cIZGj2IhT-5" value="" style="group" parent="1" vertex="1" connectable="0">
          <mxGeometry x="940" y="820" width="80" height="100" as="geometry" />
        </mxCell>
        <mxCell id="gU50jgJ4w8s5qQlBn3Q9-24" value="" style="rounded=0;whiteSpace=wrap;html=1;" parent="n296q5T5DC8cIZGj2IhT-5" vertex="1">
          <mxGeometry x="20" y="20" width="40" height="80" as="geometry" />
        </mxCell>
        <mxCell id="gU50jgJ4w8s5qQlBn3Q9-25" value="&lt;b&gt;Binary BCD&lt;/b&gt;" style="text;html=1;strokeColor=none;fillColor=none;align=center;verticalAlign=middle;whiteSpace=wrap;rounded=0;" parent="n296q5T5DC8cIZGj2IhT-5" vertex="1">
          <mxGeometry width="80" height="20" as="geometry" />
        </mxCell>
        <mxCell id="n296q5T5DC8cIZGj2IhT-10" value="" style="group" parent="1" vertex="1" connectable="0">
          <mxGeometry x="460" y="840" width="80" height="120" as="geometry" />
        </mxCell>
        <mxCell id="n296q5T5DC8cIZGj2IhT-11" value="&lt;b&gt;X&lt;/b&gt;" style="rounded=0;whiteSpace=wrap;html=1;" parent="n296q5T5DC8cIZGj2IhT-10" vertex="1">
          <mxGeometry x="20" y="40" width="40" height="80" as="geometry" />
        </mxCell>
        <mxCell id="n296q5T5DC8cIZGj2IhT-12" value="Multiplier" style="text;html=1;strokeColor=none;fillColor=none;align=center;verticalAlign=middle;whiteSpace=wrap;rounded=0;fontStyle=1" parent="n296q5T5DC8cIZGj2IhT-10" vertex="1">
          <mxGeometry y="20" width="80" height="20" as="geometry" />
        </mxCell>
        <mxCell id="n296q5T5DC8cIZGj2IhT-16" value="&lt;div&gt;[1] LUT: Look Up Table&lt;/div&gt;&lt;div&gt;Note that the voltage that comes out of ADC_Data is a 256 sample average as well. The voltage is 13 bits wide and is in mV. &lt;br&gt;&lt;/div&gt;" style="text;html=1;strokeColor=none;fillColor=none;align=center;verticalAlign=middle;whiteSpace=wrap;rounded=0;" parent="1" vertex="1">
          <mxGeometry x="700" y="1000" width="140" height="20" as="geometry" />
        </mxCell>
        <mxCell id="n296q5T5DC8cIZGj2IhT-19" style="edgeStyle=orthogonalEdgeStyle;rounded=0;orthogonalLoop=1;jettySize=auto;html=1;exitX=0.5;exitY=1;exitDx=0;exitDy=0;entryX=0.5;entryY=0;entryDx=0;entryDy=0;" parent="1" source="gU50jgJ4w8s5qQlBn3Q9-36" target="n296q5T5DC8cIZGj2IhT-2" edge="1">
          <mxGeometry relative="1" as="geometry">
            <mxPoint x="440" y="490" as="sourcePoint" />
            <mxPoint x="500" y="630" as="targetPoint" />
          </mxGeometry>
        </mxCell>
        <mxCell id="n296q5T5DC8cIZGj2IhT-20" value="clk" style="edgeLabel;html=1;align=center;verticalAlign=middle;resizable=0;points=[];" parent="n296q5T5DC8cIZGj2IhT-19" vertex="1" connectable="0">
          <mxGeometry x="0.7407" relative="1" as="geometry">
            <mxPoint x="-0.01" y="6.24" as="offset" />
          </mxGeometry>
        </mxCell>
        <mxCell id="n296q5T5DC8cIZGj2IhT-21" style="edgeStyle=orthogonalEdgeStyle;rounded=0;orthogonalLoop=1;jettySize=auto;html=1;entryX=0.5;entryY=0;entryDx=0;entryDy=0;" parent="1" target="n296q5T5DC8cIZGj2IhT-8" edge="1">
          <mxGeometry relative="1" as="geometry">
            <mxPoint x="500" y="600" as="sourcePoint" />
            <mxPoint x="670" y="700" as="targetPoint" />
            <Array as="points">
              <mxPoint x="700" y="600" />
            </Array>
          </mxGeometry>
        </mxCell>
        <mxCell id="n296q5T5DC8cIZGj2IhT-22" value="clk" style="edgeLabel;html=1;align=center;verticalAlign=middle;resizable=0;points=[];" parent="n296q5T5DC8cIZGj2IhT-21" vertex="1" connectable="0">
          <mxGeometry x="0.7407" relative="1" as="geometry">
            <mxPoint x="-0.01" y="6.24" as="offset" />
          </mxGeometry>
        </mxCell>
        <mxCell id="n296q5T5DC8cIZGj2IhT-23" value="" style="group" parent="1" vertex="1" connectable="0">
          <mxGeometry x="660" y="600" width="80" height="170" as="geometry" />
        </mxCell>
        <mxCell id="n296q5T5DC8cIZGj2IhT-7" value="" style="group" parent="n296q5T5DC8cIZGj2IhT-23" vertex="1" connectable="0">
          <mxGeometry width="80" height="120" as="geometry" />
        </mxCell>
        <mxCell id="n296q5T5DC8cIZGj2IhT-8" value="" style="rounded=0;whiteSpace=wrap;html=1;" parent="n296q5T5DC8cIZGj2IhT-7" vertex="1">
          <mxGeometry x="20" y="40" width="40" height="80" as="geometry" />
        </mxCell>
        <mxCell id="n296q5T5DC8cIZGj2IhT-9" value="256 Sample Moving Averager" style="text;html=1;strokeColor=none;fillColor=none;align=center;verticalAlign=middle;whiteSpace=wrap;rounded=0;fontStyle=1" parent="n296q5T5DC8cIZGj2IhT-23" vertex="1">
          <mxGeometry y="120" width="80" height="50" as="geometry" />
        </mxCell>
        <mxCell id="n296q5T5DC8cIZGj2IhT-24" style="edgeStyle=orthogonalEdgeStyle;rounded=0;orthogonalLoop=1;jettySize=auto;html=1;entryX=0;entryY=0.25;entryDx=0;entryDy=0;exitX=0.5;exitY=1;exitDx=0;exitDy=0;" parent="1" source="gU50jgJ4w8s5qQlBn3Q9-27" target="n296q5T5DC8cIZGj2IhT-8" edge="1">
          <mxGeometry relative="1" as="geometry">
            <mxPoint x="640" y="580" as="sourcePoint" />
            <mxPoint x="840" y="620" as="targetPoint" />
            <Array as="points">
              <mxPoint x="600" y="140" />
              <mxPoint x="600" y="660" />
            </Array>
          </mxGeometry>
        </mxCell>
        <mxCell id="n296q5T5DC8cIZGj2IhT-25" value="reset_n" style="edgeLabel;html=1;align=center;verticalAlign=middle;resizable=0;points=[];" parent="n296q5T5DC8cIZGj2IhT-24" vertex="1" connectable="0">
          <mxGeometry x="0.7407" relative="1" as="geometry">
            <mxPoint x="-0.01" y="6.24" as="offset" />
          </mxGeometry>
        </mxCell>
        <mxCell id="n296q5T5DC8cIZGj2IhT-26" style="edgeStyle=orthogonalEdgeStyle;rounded=0;orthogonalLoop=1;jettySize=auto;html=1;entryX=0;entryY=0.5;entryDx=0;entryDy=0;exitX=1;exitY=0.5;exitDx=0;exitDy=0;" parent="1" source="n296q5T5DC8cIZGj2IhT-2" target="n296q5T5DC8cIZGj2IhT-8" edge="1">
          <mxGeometry relative="1" as="geometry">
            <mxPoint x="770" y="680" as="sourcePoint" />
            <mxPoint x="970" y="720" as="targetPoint" />
            <Array as="points">
              <mxPoint x="580" y="680" />
              <mxPoint x="580" y="680" />
            </Array>
          </mxGeometry>
        </mxCell>
        <mxCell id="n296q5T5DC8cIZGj2IhT-28" value="ADC_out[11...0]" style="edgeLabel;html=1;align=center;verticalAlign=middle;resizable=0;points=[];" parent="n296q5T5DC8cIZGj2IhT-26" vertex="1" connectable="0">
          <mxGeometry x="-0.5613" y="-2" relative="1" as="geometry">
            <mxPoint x="25" y="-2" as="offset" />
          </mxGeometry>
        </mxCell>
        <mxCell id="n296q5T5DC8cIZGj2IhT-29" value="response_valid_out" style="edgeStyle=orthogonalEdgeStyle;rounded=0;orthogonalLoop=1;jettySize=auto;html=1;exitX=1;exitY=0.75;exitDx=0;exitDy=0;entryX=0;entryY=0.75;entryDx=0;entryDy=0;" parent="1" source="n296q5T5DC8cIZGj2IhT-2" target="n296q5T5DC8cIZGj2IhT-8" edge="1">
          <mxGeometry x="-0.375" relative="1" as="geometry">
            <mxPoint x="520" y="700" as="sourcePoint" />
            <mxPoint x="640" y="710" as="targetPoint" />
            <Array as="points" />
            <mxPoint as="offset" />
          </mxGeometry>
        </mxCell>
        <mxCell id="n296q5T5DC8cIZGj2IhT-31" value="&lt;div&gt;in1[9...0] = &lt;br&gt;&lt;/div&gt;&lt;div&gt;ADC_out[9...0]&lt;/div&gt;" style="edgeStyle=orthogonalEdgeStyle;rounded=0;orthogonalLoop=1;jettySize=auto;html=1;entryX=0;entryY=0.5;entryDx=0;entryDy=0;exitX=1;exitY=0.5;exitDx=0;exitDy=0;" parent="1" source="n296q5T5DC8cIZGj2IhT-8" target="n296q5T5DC8cIZGj2IhT-89" edge="1">
          <mxGeometry x="0.4615" relative="1" as="geometry">
            <mxPoint x="780" y="690" as="sourcePoint" />
            <mxPoint x="880" y="680" as="targetPoint" />
            <Array as="points" />
            <mxPoint as="offset" />
          </mxGeometry>
        </mxCell>
        <mxCell id="n296q5T5DC8cIZGj2IhT-33" value="ADC_out[11...0]" style="edgeStyle=orthogonalEdgeStyle;rounded=0;orthogonalLoop=1;jettySize=auto;html=1;entryX=0;entryY=0.25;entryDx=0;entryDy=0;exitX=1;exitY=0.5;exitDx=0;exitDy=0;" parent="1" source="n296q5T5DC8cIZGj2IhT-8" target="n296q5T5DC8cIZGj2IhT-11" edge="1">
          <mxGeometry x="0.1667" relative="1" as="geometry">
            <mxPoint x="730" y="690" as="sourcePoint" />
            <mxPoint x="890" y="690" as="targetPoint" />
            <Array as="points">
              <mxPoint x="750" y="680" />
              <mxPoint x="750" y="800" />
              <mxPoint x="440" y="800" />
              <mxPoint x="440" y="900" />
            </Array>
            <mxPoint as="offset" />
          </mxGeometry>
        </mxCell>
        <mxCell id="n296q5T5DC8cIZGj2IhT-34" value="12&#39;h9c4 = 2*2500/4096" style="edgeStyle=orthogonalEdgeStyle;rounded=0;orthogonalLoop=1;jettySize=auto;html=1;entryX=0;entryY=0.75;entryDx=0;entryDy=0;" parent="1" target="n296q5T5DC8cIZGj2IhT-11" edge="1">
          <mxGeometry x="0.5394" y="70" relative="1" as="geometry">
            <mxPoint x="350" y="940" as="sourcePoint" />
            <mxPoint x="490" y="910" as="targetPoint" />
            <Array as="points">
              <mxPoint x="370" y="940" />
              <mxPoint x="370" y="940" />
            </Array>
            <mxPoint x="-70" y="70" as="offset" />
          </mxGeometry>
        </mxCell>
        <mxCell id="n296q5T5DC8cIZGj2IhT-35" style="edgeStyle=orthogonalEdgeStyle;rounded=0;orthogonalLoop=1;jettySize=auto;html=1;entryX=0;entryY=0.25;entryDx=0;entryDy=0;exitX=0.5;exitY=1;exitDx=0;exitDy=0;" parent="1" target="n296q5T5DC8cIZGj2IhT-14" edge="1">
          <mxGeometry relative="1" as="geometry">
            <mxPoint x="600" y="660" as="sourcePoint" />
            <mxPoint x="920" y="1180" as="targetPoint" />
            <Array as="points">
              <mxPoint x="630" y="660" />
              <mxPoint x="630" y="900" />
            </Array>
          </mxGeometry>
        </mxCell>
        <mxCell id="n296q5T5DC8cIZGj2IhT-36" value="reset_n" style="edgeLabel;html=1;align=center;verticalAlign=middle;resizable=0;points=[];" parent="n296q5T5DC8cIZGj2IhT-35" vertex="1" connectable="0">
          <mxGeometry x="0.7407" relative="1" as="geometry">
            <mxPoint y="-24" as="offset" />
          </mxGeometry>
        </mxCell>
        <mxCell id="n296q5T5DC8cIZGj2IhT-37" value="" style="group" parent="1" vertex="1" connectable="0">
          <mxGeometry x="620" y="840" width="80" height="170" as="geometry" />
        </mxCell>
        <mxCell id="n296q5T5DC8cIZGj2IhT-13" value="" style="group" parent="n296q5T5DC8cIZGj2IhT-37" vertex="1" connectable="0">
          <mxGeometry width="80" height="120" as="geometry" />
        </mxCell>
        <mxCell id="n296q5T5DC8cIZGj2IhT-14" value="" style="rounded=0;whiteSpace=wrap;html=1;" parent="n296q5T5DC8cIZGj2IhT-13" vertex="1">
          <mxGeometry x="20" y="40" width="40" height="80" as="geometry" />
        </mxCell>
        <mxCell id="n296q5T5DC8cIZGj2IhT-15" value="Voltage to Distance&amp;nbsp; LUT [1]" style="text;html=1;strokeColor=none;fillColor=none;align=center;verticalAlign=middle;whiteSpace=wrap;rounded=0;fontStyle=1" parent="n296q5T5DC8cIZGj2IhT-37" vertex="1">
          <mxGeometry y="120" width="80" height="50" as="geometry" />
        </mxCell>
        <mxCell id="n296q5T5DC8cIZGj2IhT-38" value="" style="group" parent="1" vertex="1" connectable="0">
          <mxGeometry x="460" y="600" width="80" height="170" as="geometry" />
        </mxCell>
        <mxCell id="n296q5T5DC8cIZGj2IhT-4" value="" style="group" parent="n296q5T5DC8cIZGj2IhT-38" vertex="1" connectable="0">
          <mxGeometry width="80" height="120" as="geometry" />
        </mxCell>
        <mxCell id="n296q5T5DC8cIZGj2IhT-2" value="" style="rounded=0;whiteSpace=wrap;html=1;" parent="n296q5T5DC8cIZGj2IhT-4" vertex="1">
          <mxGeometry x="20" y="40" width="40" height="80" as="geometry" />
        </mxCell>
        <mxCell id="n296q5T5DC8cIZGj2IhT-3" value="ADC Conversion Wrapper" style="text;html=1;strokeColor=none;fillColor=none;align=center;verticalAlign=middle;whiteSpace=wrap;rounded=0;fontStyle=1" parent="n296q5T5DC8cIZGj2IhT-38" vertex="1">
          <mxGeometry y="120" width="80" height="50" as="geometry" />
        </mxCell>
        <mxCell id="n296q5T5DC8cIZGj2IhT-39" style="edgeStyle=orthogonalEdgeStyle;rounded=0;orthogonalLoop=1;jettySize=auto;html=1;entryX=0.5;entryY=0;entryDx=0;entryDy=0;" parent="1" target="n296q5T5DC8cIZGj2IhT-14" edge="1">
          <mxGeometry relative="1" as="geometry">
            <mxPoint x="660" y="600" as="sourcePoint" />
            <mxPoint x="710" y="650" as="targetPoint" />
            <Array as="points">
              <mxPoint x="660" y="610" />
              <mxPoint x="660" y="610" />
            </Array>
          </mxGeometry>
        </mxCell>
        <mxCell id="n296q5T5DC8cIZGj2IhT-40" value="clk" style="edgeLabel;html=1;align=center;verticalAlign=middle;resizable=0;points=[];" parent="n296q5T5DC8cIZGj2IhT-39" vertex="1" connectable="0">
          <mxGeometry x="0.7407" relative="1" as="geometry">
            <mxPoint x="-0.01" y="6.24" as="offset" />
          </mxGeometry>
        </mxCell>
        <mxCell id="n296q5T5DC8cIZGj2IhT-41" style="edgeStyle=orthogonalEdgeStyle;rounded=0;orthogonalLoop=1;jettySize=auto;html=1;entryX=0;entryY=0.5;entryDx=0;entryDy=0;exitX=1;exitY=0.5;exitDx=0;exitDy=0;" parent="1" source="n296q5T5DC8cIZGj2IhT-11" target="n296q5T5DC8cIZGj2IhT-14" edge="1">
          <mxGeometry relative="1" as="geometry">
            <mxPoint x="520" y="975" as="sourcePoint" />
            <mxPoint x="620" y="975" as="targetPoint" />
            <Array as="points">
              <mxPoint x="570" y="920" />
              <mxPoint x="570" y="920" />
            </Array>
          </mxGeometry>
        </mxCell>
        <mxCell id="n296q5T5DC8cIZGj2IhT-42" value="voltage[12...0]" style="edgeLabel;html=1;align=center;verticalAlign=middle;resizable=0;points=[];" parent="n296q5T5DC8cIZGj2IhT-41" vertex="1" connectable="0">
          <mxGeometry x="0.7407" relative="1" as="geometry">
            <mxPoint x="-54" as="offset" />
          </mxGeometry>
        </mxCell>
        <mxCell id="n296q5T5DC8cIZGj2IhT-43" style="edgeStyle=orthogonalEdgeStyle;rounded=0;orthogonalLoop=1;jettySize=auto;html=1;exitX=1;exitY=0.5;exitDx=0;exitDy=0;entryX=0;entryY=0.5;entryDx=0;entryDy=0;" parent="1" source="n296q5T5DC8cIZGj2IhT-14" target="n296q5T5DC8cIZGj2IhT-90" edge="1">
          <mxGeometry relative="1" as="geometry">
            <mxPoint x="740" y="910" as="sourcePoint" />
            <mxPoint x="840" y="920" as="targetPoint" />
            <Array as="points" />
          </mxGeometry>
        </mxCell>
        <mxCell id="n296q5T5DC8cIZGj2IhT-44" value="in2[9...0] = &lt;br&gt;voltage[9...0]" style="edgeLabel;html=1;align=center;verticalAlign=middle;resizable=0;points=[];" parent="n296q5T5DC8cIZGj2IhT-43" vertex="1" connectable="0">
          <mxGeometry x="0.7407" relative="1" as="geometry">
            <mxPoint x="-46.86" as="offset" />
          </mxGeometry>
        </mxCell>
        <mxCell id="n296q5T5DC8cIZGj2IhT-86" value="" style="group" parent="1" vertex="1" connectable="0">
          <mxGeometry x="760" y="860" width="80" height="100" as="geometry" />
        </mxCell>
        <mxCell id="n296q5T5DC8cIZGj2IhT-87" value="" style="shape=trapezoid;perimeter=trapezoidPerimeter;whiteSpace=wrap;html=1;fixedSize=1;rotation=90;" parent="n296q5T5DC8cIZGj2IhT-86" vertex="1">
          <mxGeometry y="20" width="80" height="40" as="geometry" />
        </mxCell>
        <mxCell id="n296q5T5DC8cIZGj2IhT-88" value="&lt;b&gt;10b 2-1 Mux&lt;/b&gt;" style="text;html=1;strokeColor=none;fillColor=none;align=center;verticalAlign=middle;whiteSpace=wrap;rounded=0;" parent="n296q5T5DC8cIZGj2IhT-86" vertex="1">
          <mxGeometry y="80" width="80" height="20" as="geometry" />
        </mxCell>
        <mxCell id="n296q5T5DC8cIZGj2IhT-89" value="0" style="text;html=1;strokeColor=none;fillColor=none;align=left;verticalAlign=middle;whiteSpace=wrap;rounded=0;" parent="n296q5T5DC8cIZGj2IhT-86" vertex="1">
          <mxGeometry x="20" y="10" width="40" height="20" as="geometry" />
        </mxCell>
        <mxCell id="n296q5T5DC8cIZGj2IhT-90" value="1" style="text;html=1;strokeColor=none;fillColor=none;align=left;verticalAlign=middle;whiteSpace=wrap;rounded=0;" parent="n296q5T5DC8cIZGj2IhT-86" vertex="1">
          <mxGeometry x="20" y="50" width="40" height="20" as="geometry" />
        </mxCell>
        <mxCell id="n296q5T5DC8cIZGj2IhT-91" style="edgeStyle=orthogonalEdgeStyle;rounded=0;orthogonalLoop=1;jettySize=auto;html=1;entryX=0;entryY=0.75;entryDx=0;entryDy=0;exitX=0.5;exitY=0;exitDx=0;exitDy=0;" parent="1" source="n296q5T5DC8cIZGj2IhT-87" target="gU50jgJ4w8s5qQlBn3Q9-24" edge="1">
          <mxGeometry relative="1" as="geometry">
            <mxPoint x="960" y="910" as="targetPoint" />
            <mxPoint x="890" y="910" as="sourcePoint" />
          </mxGeometry>
        </mxCell>
        <mxCell id="n296q5T5DC8cIZGj2IhT-92" value="&lt;div&gt;BCD_in[9...0] = &lt;br&gt;&lt;/div&gt;&lt;div&gt;mux_out[9...0]&lt;/div&gt;" style="edgeLabel;html=1;align=center;verticalAlign=middle;resizable=0;points=[];" parent="n296q5T5DC8cIZGj2IhT-91" vertex="1" connectable="0">
          <mxGeometry x="0.2557" relative="1" as="geometry">
            <mxPoint x="-24.999999999999996" as="offset" />
          </mxGeometry>
        </mxCell>
        <mxCell id="n296q5T5DC8cIZGj2IhT-93" style="edgeStyle=orthogonalEdgeStyle;rounded=0;orthogonalLoop=1;jettySize=auto;html=1;exitX=1;exitY=0.5;exitDx=0;exitDy=0;entryX=0;entryY=0.5;entryDx=0;entryDy=0;" parent="1" source="gU50jgJ4w8s5qQlBn3Q9-24" target="gU50jgJ4w8s5qQlBn3Q9-84" edge="1">
          <mxGeometry relative="1" as="geometry">
            <mxPoint x="910" y="370" as="targetPoint" />
            <Array as="points">
              <mxPoint x="1040" y="880" />
              <mxPoint x="1040" y="580" />
              <mxPoint x="840" y="580" />
              <mxPoint x="840" y="340" />
            </Array>
            <mxPoint x="1010" y="890" as="sourcePoint" />
          </mxGeometry>
        </mxCell>
        <mxCell id="n296q5T5DC8cIZGj2IhT-95" value="&lt;div&gt;in3[15...0] = 16&#39;h0000 OR&lt;br&gt;&lt;/div&gt;ADC_out[11...0]" style="edgeStyle=orthogonalEdgeStyle;rounded=0;orthogonalLoop=1;jettySize=auto;html=1;entryX=0;entryY=0.5;entryDx=0;entryDy=0;exitX=1;exitY=0.5;exitDx=0;exitDy=0;" parent="1" source="n296q5T5DC8cIZGj2IhT-8" target="gU50jgJ4w8s5qQlBn3Q9-86" edge="1">
          <mxGeometry x="0.1667" relative="1" as="geometry">
            <mxPoint x="730" y="690" as="sourcePoint" />
            <mxPoint x="490" y="910" as="targetPoint" />
            <Array as="points">
              <mxPoint x="750" y="680" />
              <mxPoint x="750" y="320" />
            </Array>
            <mxPoint as="offset" />
          </mxGeometry>
        </mxCell>
        <mxCell id="n296q5T5DC8cIZGj2IhT-96" style="edgeStyle=orthogonalEdgeStyle;rounded=0;orthogonalLoop=1;jettySize=auto;html=1;exitX=1;exitY=0.5;exitDx=0;exitDy=0;entryX=0;entryY=0.5;entryDx=0;entryDy=0;" parent="1" source="gU50jgJ4w8s5qQlBn3Q9-12" target="n296q5T5DC8cIZGj2IhT-87" edge="1">
          <mxGeometry relative="1" as="geometry">
            <Array as="points">
              <mxPoint x="670" y="340" />
              <mxPoint x="670" y="510" />
              <mxPoint x="800" y="510" />
            </Array>
            <mxPoint x="450" y="350" as="sourcePoint" />
            <mxPoint x="850" y="700" as="targetPoint" />
          </mxGeometry>
        </mxCell>
        <mxCell id="n296q5T5DC8cIZGj2IhT-97" value="s = sync_out[8]" style="edgeLabel;html=1;align=center;verticalAlign=middle;resizable=0;points=[];" parent="n296q5T5DC8cIZGj2IhT-96" vertex="1" connectable="0">
          <mxGeometry x="0.1926" relative="1" as="geometry">
            <mxPoint y="289" as="offset" />
          </mxGeometry>
        </mxCell>
        <mxCell id="qrD2C8hpQl2Eq77jqO-W-13" value="&lt;div&gt;00: Voltage decimal (V)&lt;br&gt;&lt;/div&gt;&lt;div&gt;01: Distance in decimal (cm)&lt;br&gt;10: ADC 256 moving avg&lt;br&gt;&lt;/div&gt;&lt;div&gt;11: Switch input&lt;/div&gt;" style="text;html=1;strokeColor=none;fillColor=none;align=center;verticalAlign=middle;whiteSpace=wrap;rounded=0;" parent="1" vertex="1">
          <mxGeometry x="840" y="400" width="160" height="60" as="geometry" />
        </mxCell>
        <mxCell id="gU50jgJ4w8s5qQlBn3Q9-61" value="&lt;div&gt;DP_in[5...0] =&lt;/div&gt;&lt;div&gt;mux_out[5...0]&lt;/div&gt;" style="endArrow=classic;html=1;entryX=0;entryY=0.335;entryDx=0;entryDy=0;edgeStyle=orthogonalEdgeStyle;rounded=0;entryPerimeter=0;exitX=0.507;exitY=0.027;exitDx=0;exitDy=0;exitPerimeter=0;" parent="1" source="qrD2C8hpQl2Eq77jqO-W-34" edge="1" target="3ByCjqJIBNXzOxceq1T8-11">
          <mxGeometry x="160" y="50" width="50" height="50" as="geometry">
            <mxPoint x="1701.25" y="160" as="sourcePoint" />
            <mxPoint x="2000" y="160" as="targetPoint" />
            <mxPoint x="-30" as="offset" />
          </mxGeometry>
        </mxCell>
        <mxCell id="gU50jgJ4w8s5qQlBn3Q9-63" style="edgeStyle=orthogonalEdgeStyle;rounded=0;orthogonalLoop=1;jettySize=auto;html=1;entryX=0;entryY=0.5;entryDx=0;entryDy=0;exitX=1;exitY=0.335;exitDx=0;exitDy=0;exitPerimeter=0;" parent="1" target="3ByCjqJIBNXzOxceq1T8-25" edge="1" source="3ByCjqJIBNXzOxceq1T8-54">
          <mxGeometry x="1760" y="-120" as="geometry">
            <mxPoint x="2000" y="180" as="targetPoint" />
            <mxPoint x="1980" y="270.00000000000006" as="sourcePoint" />
            <Array as="points">
              <mxPoint x="1980" y="270.00000000000006" />
            </Array>
          </mxGeometry>
        </mxCell>
        <mxCell id="gU50jgJ4w8s5qQlBn3Q9-64" value="&lt;div&gt;Num_Hex0[3...0] = mux_out[3...0]&lt;/div&gt;" style="edgeLabel;html=1;align=center;verticalAlign=middle;resizable=0;points=[];" parent="gU50jgJ4w8s5qQlBn3Q9-63" vertex="1" connectable="0">
          <mxGeometry x="0.2867" y="4" relative="1" as="geometry">
            <mxPoint x="35.379999999999995" y="4" as="offset" />
          </mxGeometry>
        </mxCell>
        <mxCell id="gU50jgJ4w8s5qQlBn3Q9-65" value="&lt;div&gt;Num_Hex1[3...0] = mux_out[7...4]&lt;/div&gt;" style="edgeStyle=orthogonalEdgeStyle;rounded=0;orthogonalLoop=1;jettySize=auto;html=1;entryX=0;entryY=0.5;entryDx=0;entryDy=0;exitX=1;exitY=0.335;exitDx=0;exitDy=0;exitPerimeter=0;" parent="1" target="3ByCjqJIBNXzOxceq1T8-26" edge="1" source="3ByCjqJIBNXzOxceq1T8-54">
          <mxGeometry x="160" y="50" as="geometry">
            <mxPoint x="1980" y="290.00000000000006" as="sourcePoint" />
            <Array as="points">
              <mxPoint x="1980" y="290.00000000000006" />
            </Array>
            <mxPoint x="60" y="-20" as="offset" />
            <mxPoint x="2000" y="200.00000000000006" as="targetPoint" />
          </mxGeometry>
        </mxCell>
        <mxCell id="gU50jgJ4w8s5qQlBn3Q9-66" value="&lt;div&gt;Num_Hex2[3...0] = mux_out[11...8]&lt;/div&gt;" style="edgeStyle=orthogonalEdgeStyle;rounded=0;orthogonalLoop=1;jettySize=auto;html=1;entryX=0;entryY=0.5;entryDx=0;entryDy=0;exitX=1;exitY=0.335;exitDx=0;exitDy=0;exitPerimeter=0;" parent="1" target="3ByCjqJIBNXzOxceq1T8-27" edge="1" source="3ByCjqJIBNXzOxceq1T8-54">
          <mxGeometry x="160" y="50" as="geometry">
            <mxPoint x="1980" y="310.00000000000006" as="sourcePoint" />
            <Array as="points">
              <mxPoint x="1980" y="310.00000000000006" />
            </Array>
            <mxPoint x="60" y="-10" as="offset" />
            <mxPoint x="2000" y="220.00000000000006" as="targetPoint" />
          </mxGeometry>
        </mxCell>
        <mxCell id="gU50jgJ4w8s5qQlBn3Q9-67" value="&lt;div&gt;Num_Hex3[3...0] = mux_out[15...12]&lt;/div&gt;" style="edgeStyle=orthogonalEdgeStyle;rounded=0;orthogonalLoop=1;jettySize=auto;html=1;entryX=0;entryY=0.5;entryDx=0;entryDy=0;exitX=1;exitY=0.335;exitDx=0;exitDy=0;exitPerimeter=0;" parent="1" target="3ByCjqJIBNXzOxceq1T8-28" edge="1" source="3ByCjqJIBNXzOxceq1T8-54">
          <mxGeometry x="160" y="50" as="geometry">
            <mxPoint x="1980" y="330.00000000000006" as="sourcePoint" />
            <mxPoint x="2000" y="240.00000000000006" as="targetPoint" />
            <Array as="points" />
            <mxPoint x="60" as="offset" />
          </mxGeometry>
        </mxCell>
        <mxCell id="3ByCjqJIBNXzOxceq1T8-31" value="" style="group" vertex="1" connectable="0" parent="1">
          <mxGeometry x="2020" y="180" width="230" height="220" as="geometry" />
        </mxCell>
        <mxCell id="gU50jgJ4w8s5qQlBn3Q9-70" value="&lt;div&gt;Num_Hex5[3...0] = 4&#39;h0&lt;br&gt;&lt;/div&gt;" style="endArrow=classic;html=1;entryX=0;entryY=0.5;entryDx=0;entryDy=0;rounded=0;edgeStyle=orthogonalEdgeStyle;" parent="3ByCjqJIBNXzOxceq1T8-31" edge="1" target="3ByCjqJIBNXzOxceq1T8-30">
          <mxGeometry width="50" height="50" as="geometry">
            <mxPoint x="-40" y="150" as="sourcePoint" />
            <mxPoint x="140" y="190" as="targetPoint" />
            <mxPoint y="20" as="offset" />
            <Array as="points">
              <mxPoint x="-40" y="190" />
            </Array>
          </mxGeometry>
        </mxCell>
        <mxCell id="gU50jgJ4w8s5qQlBn3Q9-69" value="&lt;div&gt;Num_Hex4[3...0] = 4&#39;h0&lt;br&gt;&lt;/div&gt;" style="endArrow=classic;html=1;entryX=0;entryY=0.5;entryDx=0;entryDy=0;edgeStyle=orthogonalEdgeStyle;rounded=0;" parent="3ByCjqJIBNXzOxceq1T8-31" edge="1" target="3ByCjqJIBNXzOxceq1T8-29">
          <mxGeometry width="50" height="50" as="geometry">
            <mxPoint x="-40" y="150" as="sourcePoint" />
            <mxPoint x="140" y="170" as="targetPoint" />
            <mxPoint y="10" as="offset" />
            <Array as="points">
              <mxPoint x="-40" y="170" />
            </Array>
          </mxGeometry>
        </mxCell>
        <mxCell id="3ByCjqJIBNXzOxceq1T8-21" value="" style="rounded=0;whiteSpace=wrap;html=1;" vertex="1" parent="3ByCjqJIBNXzOxceq1T8-31">
          <mxGeometry x="160" y="20" width="40" height="200" as="geometry" />
        </mxCell>
        <mxCell id="3ByCjqJIBNXzOxceq1T8-22" value="&lt;b&gt;Seven Segment&lt;/b&gt;" style="text;html=1;strokeColor=none;fillColor=none;align=center;verticalAlign=middle;whiteSpace=wrap;rounded=0;" vertex="1" parent="3ByCjqJIBNXzOxceq1T8-31">
          <mxGeometry x="130" width="100" height="20" as="geometry" />
        </mxCell>
        <mxCell id="3ByCjqJIBNXzOxceq1T8-23" value="" style="rounded=0;whiteSpace=wrap;html=1;" vertex="1" parent="3ByCjqJIBNXzOxceq1T8-31">
          <mxGeometry x="160" y="60" width="20" height="20" as="geometry" />
        </mxCell>
        <mxCell id="3ByCjqJIBNXzOxceq1T8-24" value="" style="rounded=0;whiteSpace=wrap;html=1;" vertex="1" parent="3ByCjqJIBNXzOxceq1T8-31">
          <mxGeometry x="160" y="40" width="20" height="20" as="geometry" />
        </mxCell>
        <mxCell id="3ByCjqJIBNXzOxceq1T8-25" value="" style="rounded=0;whiteSpace=wrap;html=1;" vertex="1" parent="3ByCjqJIBNXzOxceq1T8-31">
          <mxGeometry x="160" y="80" width="20" height="20" as="geometry" />
        </mxCell>
        <mxCell id="3ByCjqJIBNXzOxceq1T8-26" value="" style="rounded=0;whiteSpace=wrap;html=1;" vertex="1" parent="3ByCjqJIBNXzOxceq1T8-31">
          <mxGeometry x="160" y="100" width="20" height="20" as="geometry" />
        </mxCell>
        <mxCell id="3ByCjqJIBNXzOxceq1T8-27" value="" style="rounded=0;whiteSpace=wrap;html=1;" vertex="1" parent="3ByCjqJIBNXzOxceq1T8-31">
          <mxGeometry x="160" y="120" width="20" height="20" as="geometry" />
        </mxCell>
        <mxCell id="3ByCjqJIBNXzOxceq1T8-28" value="" style="rounded=0;whiteSpace=wrap;html=1;" vertex="1" parent="3ByCjqJIBNXzOxceq1T8-31">
          <mxGeometry x="160" y="140" width="20" height="20" as="geometry" />
        </mxCell>
        <mxCell id="3ByCjqJIBNXzOxceq1T8-29" value="" style="rounded=0;whiteSpace=wrap;html=1;" vertex="1" parent="3ByCjqJIBNXzOxceq1T8-31">
          <mxGeometry x="160" y="160" width="20" height="20" as="geometry" />
        </mxCell>
        <mxCell id="3ByCjqJIBNXzOxceq1T8-30" value="" style="rounded=0;whiteSpace=wrap;html=1;" vertex="1" parent="3ByCjqJIBNXzOxceq1T8-31">
          <mxGeometry x="160" y="180" width="20" height="20" as="geometry" />
        </mxCell>
        <mxCell id="3ByCjqJIBNXzOxceq1T8-45" style="edgeStyle=orthogonalEdgeStyle;rounded=0;orthogonalLoop=1;jettySize=auto;html=1;exitX=1;exitY=0.335;exitDx=0;exitDy=0;exitPerimeter=0;entryX=0;entryY=0.5;entryDx=0;entryDy=0;" edge="1" parent="1" source="3ByCjqJIBNXzOxceq1T8-11" target="3ByCjqJIBNXzOxceq1T8-23">
          <mxGeometry relative="1" as="geometry">
            <Array as="points">
              <mxPoint x="2090" y="160" />
              <mxPoint x="2090" y="250.00000000000006" />
            </Array>
          </mxGeometry>
        </mxCell>
        <mxCell id="3ByCjqJIBNXzOxceq1T8-57" value="&lt;div&gt;DP_in[5...0] = &lt;br&gt;&lt;/div&gt;&lt;div&gt;DP_save_out[5...0]&lt;/div&gt;" style="edgeLabel;html=1;align=center;verticalAlign=middle;resizable=0;points=[];" vertex="1" connectable="0" parent="3ByCjqJIBNXzOxceq1T8-45">
          <mxGeometry x="-0.6005" relative="1" as="geometry">
            <mxPoint x="3.79" y="39.8" as="offset" />
          </mxGeometry>
        </mxCell>
        <mxCell id="3ByCjqJIBNXzOxceq1T8-46" value="&lt;div&gt;blank[5...0] = &lt;br&gt;&lt;/div&gt;&lt;div&gt;blanker_out[5...0]&lt;/div&gt;" style="edgeStyle=orthogonalEdgeStyle;rounded=0;orthogonalLoop=1;jettySize=auto;html=1;exitX=1;exitY=0.5;exitDx=0;exitDy=0;entryX=0;entryY=0.5;entryDx=0;entryDy=0;" edge="1" parent="1" source="3ByCjqJIBNXzOxceq1T8-69" target="3ByCjqJIBNXzOxceq1T8-24">
          <mxGeometry x="0.0325" relative="1" as="geometry">
            <mxPoint x="2100" y="30.15000000000009" as="sourcePoint" />
            <Array as="points">
              <mxPoint x="2140" y="10" />
              <mxPoint x="2140" y="230" />
            </Array>
            <mxPoint as="offset" />
          </mxGeometry>
        </mxCell>
        <mxCell id="3ByCjqJIBNXzOxceq1T8-52" value="" style="group" vertex="1" connectable="0" parent="1">
          <mxGeometry x="1760" y="310.00000000000006" width="100" height="90" as="geometry" />
        </mxCell>
        <mxCell id="3ByCjqJIBNXzOxceq1T8-53" value="" style="group" vertex="1" connectable="0" parent="3ByCjqJIBNXzOxceq1T8-52">
          <mxGeometry y="-10" width="100" height="90" as="geometry" />
        </mxCell>
        <mxCell id="3ByCjqJIBNXzOxceq1T8-54" value="" style="verticalLabelPosition=bottom;shadow=0;dashed=0;align=center;html=1;verticalAlign=top;shape=mxgraph.electrical.logic_gates.d_type_flip-flop_with_clear;" vertex="1" parent="3ByCjqJIBNXzOxceq1T8-53">
          <mxGeometry width="100" height="90" as="geometry" />
        </mxCell>
        <mxCell id="3ByCjqJIBNXzOxceq1T8-55" value="16b" style="text;html=1;strokeColor=none;fillColor=none;align=center;verticalAlign=middle;whiteSpace=wrap;rounded=0;" vertex="1" parent="3ByCjqJIBNXzOxceq1T8-53">
          <mxGeometry x="30" y="35" width="40" height="20" as="geometry" />
        </mxCell>
        <mxCell id="3ByCjqJIBNXzOxceq1T8-56" value="EN" style="rounded=0;whiteSpace=wrap;html=1;" vertex="1" parent="3ByCjqJIBNXzOxceq1T8-53">
          <mxGeometry x="40" y="70" width="20" height="20" as="geometry" />
        </mxCell>
        <mxCell id="3ByCjqJIBNXzOxceq1T8-71" value="" style="group" vertex="1" connectable="0" parent="1">
          <mxGeometry x="2040" y="-30" width="80" height="100" as="geometry" />
        </mxCell>
        <mxCell id="3ByCjqJIBNXzOxceq1T8-69" value="" style="whiteSpace=wrap;html=1;aspect=fixed;" vertex="1" parent="3ByCjqJIBNXzOxceq1T8-71">
          <mxGeometry width="80" height="80" as="geometry" />
        </mxCell>
        <mxCell id="3ByCjqJIBNXzOxceq1T8-70" value="digit blanker" style="text;html=1;strokeColor=none;fillColor=none;align=center;verticalAlign=middle;whiteSpace=wrap;rounded=0;fontStyle=1" vertex="1" parent="3ByCjqJIBNXzOxceq1T8-71">
          <mxGeometry y="80" width="80" height="20" as="geometry" />
        </mxCell>
        <mxCell id="3ByCjqJIBNXzOxceq1T8-72" style="edgeStyle=orthogonalEdgeStyle;rounded=0;orthogonalLoop=1;jettySize=auto;html=1;exitX=1;exitY=0.335;exitDx=0;exitDy=0;exitPerimeter=0;entryX=0;entryY=0.5;entryDx=0;entryDy=0;" edge="1" parent="1" source="3ByCjqJIBNXzOxceq1T8-54" target="3ByCjqJIBNXzOxceq1T8-69">
          <mxGeometry relative="1" as="geometry">
            <Array as="points">
              <mxPoint x="1880" y="330" />
              <mxPoint x="1880" y="10" />
            </Array>
          </mxGeometry>
        </mxCell>
        <mxCell id="3ByCjqJIBNXzOxceq1T8-73" value="&lt;div&gt;Num_Hex0 = Num_Hex0&lt;/div&gt;&lt;div&gt;Num_Hex1 = Num_Hex1&lt;/div&gt;&lt;div&gt;Num_Hex2 = Num_Hex2&lt;/div&gt;&lt;div&gt;Num_Hex3 = Num_Hex3&lt;/div&gt;&lt;div&gt;Num_Hex4 = Num_Hex4&lt;/div&gt;&lt;div&gt;Num_Hez5 = Num_Hex5&lt;/div&gt;" style="edgeLabel;html=1;align=center;verticalAlign=middle;resizable=0;points=[];" vertex="1" connectable="0" parent="3ByCjqJIBNXzOxceq1T8-72">
          <mxGeometry x="0.4457" y="-2" relative="1" as="geometry">
            <mxPoint x="-21.169999999999998" y="58" as="offset" />
          </mxGeometry>
        </mxCell>
        <mxCell id="3ByCjqJIBNXzOxceq1T8-74" value="&lt;div&gt;DP_in[5...0] =&lt;/div&gt;&lt;div&gt;DP_in[5...0]&lt;/div&gt;" style="edgeStyle=orthogonalEdgeStyle;rounded=0;orthogonalLoop=1;jettySize=auto;html=1;exitX=1;exitY=0.335;exitDx=0;exitDy=0;exitPerimeter=0;entryX=0;entryY=0.75;entryDx=0;entryDy=0;" edge="1" parent="1" source="3ByCjqJIBNXzOxceq1T8-11" target="3ByCjqJIBNXzOxceq1T8-69">
          <mxGeometry relative="1" as="geometry">
            <Array as="points">
              <mxPoint x="2020" y="30" />
            </Array>
          </mxGeometry>
        </mxCell>
        <mxCell id="qrD2C8hpQl2Eq77jqO-W-34" value="" style="shape=trapezoid;perimeter=trapezoidPerimeter;whiteSpace=wrap;html=1;fixedSize=1;rotation=90;" parent="1" vertex="1">
          <mxGeometry x="1710" y="138.75" width="100" height="42.5" as="geometry" />
        </mxCell>
        <mxCell id="qrD2C8hpQl2Eq77jqO-W-36" value="01" style="text;whiteSpace=wrap;html=1;align=left;" parent="1" vertex="1">
          <mxGeometry x="1738.75" y="160" width="40" height="20" as="geometry" />
        </mxCell>
        <mxCell id="qrD2C8hpQl2Eq77jqO-W-37" value="00" style="text;whiteSpace=wrap;html=1;align=left;" parent="1" vertex="1">
          <mxGeometry x="1738.75" y="180" width="40" height="20" as="geometry" />
        </mxCell>
        <mxCell id="qrD2C8hpQl2Eq77jqO-W-38" value="10" style="text;whiteSpace=wrap;html=1;align=left;" parent="1" vertex="1">
          <mxGeometry x="1738.75" y="140" width="40" height="20" as="geometry" />
        </mxCell>
        <mxCell id="qrD2C8hpQl2Eq77jqO-W-39" value="11" style="text;whiteSpace=wrap;html=1;align=left;" parent="1" vertex="1">
          <mxGeometry x="1738.75" y="120" width="40" height="20" as="geometry" />
        </mxCell>
        <mxCell id="qrD2C8hpQl2Eq77jqO-W-46" value="01" style="text;whiteSpace=wrap;html=1;align=left;" parent="1" vertex="1">
          <mxGeometry x="1738.75" y="160" width="40" height="20" as="geometry" />
        </mxCell>
        <mxCell id="qrD2C8hpQl2Eq77jqO-W-47" value="00" style="text;whiteSpace=wrap;html=1;align=left;" parent="1" vertex="1">
          <mxGeometry x="1738.75" y="180" width="40" height="20" as="geometry" />
        </mxCell>
        <mxCell id="qrD2C8hpQl2Eq77jqO-W-48" value="10" style="text;whiteSpace=wrap;html=1;align=left;" parent="1" vertex="1">
          <mxGeometry x="1738.75" y="140" width="40" height="20" as="geometry" />
        </mxCell>
        <mxCell id="qrD2C8hpQl2Eq77jqO-W-49" value="11" style="text;whiteSpace=wrap;html=1;align=left;" parent="1" vertex="1">
          <mxGeometry x="1738.75" y="120" width="40" height="20" as="geometry" />
        </mxCell>
        <mxCell id="qrD2C8hpQl2Eq77jqO-W-56" value="01" style="text;whiteSpace=wrap;html=1;align=left;" parent="1" vertex="1">
          <mxGeometry x="1738.75" y="160" width="40" height="20" as="geometry" />
        </mxCell>
        <mxCell id="qrD2C8hpQl2Eq77jqO-W-57" value="00" style="text;whiteSpace=wrap;html=1;align=left;" parent="1" vertex="1">
          <mxGeometry x="1738.75" y="180" width="40" height="20" as="geometry" />
        </mxCell>
        <mxCell id="qrD2C8hpQl2Eq77jqO-W-58" value="10" style="text;whiteSpace=wrap;html=1;align=left;" parent="1" vertex="1">
          <mxGeometry x="1738.75" y="140" width="40" height="20" as="geometry" />
        </mxCell>
        <mxCell id="qrD2C8hpQl2Eq77jqO-W-59" value="11" style="text;whiteSpace=wrap;html=1;align=left;" parent="1" vertex="1">
          <mxGeometry x="1738.75" y="120" width="40" height="20" as="geometry" />
        </mxCell>
        <mxCell id="3ByCjqJIBNXzOxceq1T8-59" value="00" style="text;whiteSpace=wrap;html=1;align=left;" vertex="1" parent="1">
          <mxGeometry x="1738.75" y="180" width="40" height="20" as="geometry" />
        </mxCell>
        <mxCell id="3ByCjqJIBNXzOxceq1T8-60" value="01" style="text;whiteSpace=wrap;html=1;align=left;" vertex="1" parent="1">
          <mxGeometry x="1738.75" y="160" width="40" height="20" as="geometry" />
        </mxCell>
        <mxCell id="3ByCjqJIBNXzOxceq1T8-61" value="10" style="text;whiteSpace=wrap;html=1;align=left;" vertex="1" parent="1">
          <mxGeometry x="1738.75" y="140" width="40" height="20" as="geometry" />
        </mxCell>
        <mxCell id="3ByCjqJIBNXzOxceq1T8-62" value="11" style="text;whiteSpace=wrap;html=1;align=left;" vertex="1" parent="1">
          <mxGeometry x="1738.75" y="120" width="40" height="20" as="geometry" />
        </mxCell>
        <mxCell id="qrD2C8hpQl2Eq77jqO-W-35" value="&lt;b&gt;6b 4-1 Mux&lt;/b&gt;" style="text;html=1;strokeColor=none;fillColor=none;align=center;verticalAlign=middle;whiteSpace=wrap;rounded=0;" parent="1" vertex="1">
          <mxGeometry x="1718.75" y="210" width="80" height="20" as="geometry" />
        </mxCell>
        <mxCell id="qrD2C8hpQl2Eq77jqO-W-40" value="000000" style="edgeStyle=orthogonalEdgeStyle;rounded=0;orthogonalLoop=1;jettySize=auto;html=1;entryX=0;entryY=0.5;entryDx=0;entryDy=0;" parent="1" target="qrD2C8hpQl2Eq77jqO-W-57" edge="1">
          <mxGeometry x="0.0213" relative="1" as="geometry">
            <mxPoint x="1680" y="190" as="sourcePoint" />
            <mxPoint x="1720" y="180" as="targetPoint" />
            <Array as="points" />
            <mxPoint as="offset" />
          </mxGeometry>
        </mxCell>
        <mxCell id="qrD2C8hpQl2Eq77jqO-W-41" value="000000" style="edgeStyle=orthogonalEdgeStyle;rounded=0;orthogonalLoop=1;jettySize=auto;html=1;entryX=0;entryY=0.5;entryDx=0;entryDy=0;" parent="1" edge="1" target="qrD2C8hpQl2Eq77jqO-W-56">
          <mxGeometry x="0.0213" relative="1" as="geometry">
            <mxPoint x="1680" y="170" as="sourcePoint" />
            <mxPoint x="1738.75" y="169.82999999999993" as="targetPoint" />
            <Array as="points">
              <mxPoint x="1690" y="170" />
            </Array>
            <mxPoint as="offset" />
          </mxGeometry>
        </mxCell>
        <mxCell id="qrD2C8hpQl2Eq77jqO-W-42" value="001000" style="edgeStyle=orthogonalEdgeStyle;rounded=0;orthogonalLoop=1;jettySize=auto;html=1;entryX=0;entryY=0.5;entryDx=0;entryDy=0;" parent="1" edge="1" target="qrD2C8hpQl2Eq77jqO-W-58">
          <mxGeometry x="0.0213" relative="1" as="geometry">
            <mxPoint x="1680" y="150" as="sourcePoint" />
            <mxPoint x="1738.75" y="149.82999999999993" as="targetPoint" />
            <Array as="points">
              <mxPoint x="1690" y="150" />
            </Array>
            <mxPoint as="offset" />
          </mxGeometry>
        </mxCell>
        <mxCell id="qrD2C8hpQl2Eq77jqO-W-43" value="000100" style="edgeStyle=orthogonalEdgeStyle;rounded=0;orthogonalLoop=1;jettySize=auto;html=1;entryX=0;entryY=0.5;entryDx=0;entryDy=0;" parent="1" edge="1" target="qrD2C8hpQl2Eq77jqO-W-59">
          <mxGeometry x="0.0213" relative="1" as="geometry">
            <mxPoint x="1680" y="130" as="sourcePoint" />
            <mxPoint x="1738.75" y="129.82999999999993" as="targetPoint" />
            <Array as="points" />
            <mxPoint as="offset" />
          </mxGeometry>
        </mxCell>
        <mxCell id="3ByCjqJIBNXzOxceq1T8-64" value="00" style="text;whiteSpace=wrap;html=1;align=left;" vertex="1" parent="1">
          <mxGeometry x="1738.75" y="180" width="40" height="20" as="geometry" />
        </mxCell>
        <mxCell id="3ByCjqJIBNXzOxceq1T8-65" value="01" style="text;whiteSpace=wrap;html=1;align=left;" vertex="1" parent="1">
          <mxGeometry x="1738.75" y="160" width="40" height="20" as="geometry" />
        </mxCell>
        <mxCell id="3ByCjqJIBNXzOxceq1T8-66" value="10" style="text;whiteSpace=wrap;html=1;align=left;" vertex="1" parent="1">
          <mxGeometry x="1738.75" y="140" width="40" height="20" as="geometry" />
        </mxCell>
        <mxCell id="3ByCjqJIBNXzOxceq1T8-67" value="11" style="text;whiteSpace=wrap;html=1;align=left;" vertex="1" parent="1">
          <mxGeometry x="1738.75" y="120" width="40" height="20" as="geometry" />
        </mxCell>
        <mxCell id="3ByCjqJIBNXzOxceq1T8-81" value="" style="group" vertex="1" connectable="0" parent="1">
          <mxGeometry x="1880" y="-110" width="80" height="100" as="geometry" />
        </mxCell>
        <mxCell id="3ByCjqJIBNXzOxceq1T8-79" value="" style="rounded=0;whiteSpace=wrap;html=1;fontStyle=1" vertex="1" parent="3ByCjqJIBNXzOxceq1T8-81">
          <mxGeometry width="80" height="80" as="geometry" />
        </mxCell>
        <mxCell id="3ByCjqJIBNXzOxceq1T8-80" value="PWM" style="text;html=1;strokeColor=none;fillColor=none;align=center;verticalAlign=middle;whiteSpace=wrap;rounded=0;fontStyle=1" vertex="1" parent="3ByCjqJIBNXzOxceq1T8-81">
          <mxGeometry x="20" y="80" width="40" height="20" as="geometry" />
        </mxCell>
        <mxCell id="3ByCjqJIBNXzOxceq1T8-84" value="&lt;div&gt;blank_all_in&lt;/div&gt;&lt;div&gt;= pwm_out&lt;/div&gt;" style="edgeStyle=orthogonalEdgeStyle;rounded=0;orthogonalLoop=1;jettySize=auto;html=1;exitX=1;exitY=0.5;exitDx=0;exitDy=0;entryX=0;entryY=0.25;entryDx=0;entryDy=0;" edge="1" parent="1" source="3ByCjqJIBNXzOxceq1T8-79" target="3ByCjqJIBNXzOxceq1T8-69">
          <mxGeometry relative="1" as="geometry" />
        </mxCell>
        <mxCell id="3ByCjqJIBNXzOxceq1T8-85" value="" style="group" vertex="1" connectable="0" parent="1">
          <mxGeometry x="1660" y="-90" width="80" height="100" as="geometry" />
        </mxCell>
        <mxCell id="3ByCjqJIBNXzOxceq1T8-86" value="" style="rounded=0;whiteSpace=wrap;html=1;fontStyle=1" vertex="1" parent="3ByCjqJIBNXzOxceq1T8-85">
          <mxGeometry width="80" height="80" as="geometry" />
        </mxCell>
        <mxCell id="3ByCjqJIBNXzOxceq1T8-87" value="downcounter" style="text;html=1;strokeColor=none;fillColor=none;align=center;verticalAlign=middle;whiteSpace=wrap;rounded=0;fontStyle=1" vertex="1" parent="3ByCjqJIBNXzOxceq1T8-85">
          <mxGeometry x="20" y="80" width="40" height="20" as="geometry" />
        </mxCell>
        <mxCell id="3ByCjqJIBNXzOxceq1T8-88" style="edgeStyle=orthogonalEdgeStyle;rounded=0;orthogonalLoop=1;jettySize=auto;html=1;exitX=1;exitY=0.5;exitDx=0;exitDy=0;entryX=0;entryY=0.75;entryDx=0;entryDy=0;" edge="1" parent="1" source="3ByCjqJIBNXzOxceq1T8-86" target="3ByCjqJIBNXzOxceq1T8-79">
          <mxGeometry relative="1" as="geometry" />
        </mxCell>
        <mxCell id="3ByCjqJIBNXzOxceq1T8-89" value="enable = zero" style="edgeLabel;html=1;align=center;verticalAlign=middle;resizable=0;points=[];" vertex="1" connectable="0" parent="3ByCjqJIBNXzOxceq1T8-88">
          <mxGeometry x="0.4143" y="1" relative="1" as="geometry">
            <mxPoint x="-34.8" as="offset" />
          </mxGeometry>
        </mxCell>
        <mxCell id="3ByCjqJIBNXzOxceq1T8-90" value="duty_cycle = 0.5" style="endArrow=classic;html=1;entryX=0;entryY=0.5;entryDx=0;entryDy=0;" edge="1" parent="1" target="3ByCjqJIBNXzOxceq1T8-79">
          <mxGeometry width="50" height="50" relative="1" as="geometry">
            <mxPoint x="1760" y="-70" as="sourcePoint" />
            <mxPoint x="1830" y="-90" as="targetPoint" />
            <mxPoint as="offset" />
          </mxGeometry>
        </mxCell>
        <mxCell id="3ByCjqJIBNXzOxceq1T8-94" value="period = y" style="edgeStyle=orthogonalEdgeStyle;rounded=0;orthogonalLoop=1;jettySize=auto;html=1;exitX=1;exitY=0.5;exitDx=0;exitDy=0;entryX=0;entryY=0.5;entryDx=0;entryDy=0;" edge="1" parent="1" source="3ByCjqJIBNXzOxceq1T8-91" target="3ByCjqJIBNXzOxceq1T8-86">
          <mxGeometry relative="1" as="geometry" />
        </mxCell>
        <mxCell id="3ByCjqJIBNXzOxceq1T8-95" value="" style="group" vertex="1" connectable="0" parent="1">
          <mxGeometry x="1430" y="-70" width="220" height="90" as="geometry" />
        </mxCell>
        <mxCell id="3ByCjqJIBNXzOxceq1T8-91" value="y = m*x + b" style="rounded=0;whiteSpace=wrap;html=1;" vertex="1" parent="3ByCjqJIBNXzOxceq1T8-95">
          <mxGeometry x="70" width="80" height="40" as="geometry" />
        </mxCell>
        <mxCell id="3ByCjqJIBNXzOxceq1T8-92" value="&lt;div&gt;m = (y_max - y_min)/(x_max - x_min)&lt;/div&gt;&lt;div&gt;b = y_min - x_min*m&lt;br&gt;&lt;/div&gt;" style="text;html=1;align=center;verticalAlign=middle;resizable=0;points=[];autosize=1;" vertex="1" parent="3ByCjqJIBNXzOxceq1T8-95">
          <mxGeometry y="60" width="220" height="30" as="geometry" />
        </mxCell>
        <mxCell id="3ByCjqJIBNXzOxceq1T8-93" value="interpolator" style="text;html=1;strokeColor=none;fillColor=none;align=center;verticalAlign=middle;whiteSpace=wrap;rounded=0;fontStyle=1" vertex="1" parent="3ByCjqJIBNXzOxceq1T8-95">
          <mxGeometry x="70" y="40" width="80" height="20" as="geometry" />
        </mxCell>
        <mxCell id="3ByCjqJIBNXzOxceq1T8-96" value="enable = debounce_out" style="edgeStyle=orthogonalEdgeStyle;rounded=0;orthogonalLoop=1;jettySize=auto;html=1;exitX=1;exitY=0.5;exitDx=0;exitDy=0;entryX=0.25;entryY=0;entryDx=0;entryDy=0;" edge="1" parent="1" source="gU50jgJ4w8s5qQlBn3Q9-8" target="3ByCjqJIBNXzOxceq1T8-86">
          <mxGeometry relative="1" as="geometry" />
        </mxCell>
        <mxCell id="3ByCjqJIBNXzOxceq1T8-98" value="enable = debounce_out" style="edgeStyle=orthogonalEdgeStyle;rounded=0;orthogonalLoop=1;jettySize=auto;html=1;exitX=1;exitY=0.5;exitDx=0;exitDy=0;entryX=0.5;entryY=1;entryDx=0;entryDy=0;" edge="1" parent="1" source="gU50jgJ4w8s5qQlBn3Q9-8" target="3ByCjqJIBNXzOxceq1T8-33">
          <mxGeometry relative="1" as="geometry" />
        </mxCell>
        <mxCell id="3ByCjqJIBNXzOxceq1T8-99" value="enable = debounce_out" style="edgeStyle=orthogonalEdgeStyle;rounded=0;orthogonalLoop=1;jettySize=auto;html=1;exitX=1;exitY=0.5;exitDx=0;exitDy=0;entryX=0.5;entryY=1;entryDx=0;entryDy=0;" edge="1" parent="1" source="gU50jgJ4w8s5qQlBn3Q9-8" target="3ByCjqJIBNXzOxceq1T8-56">
          <mxGeometry relative="1" as="geometry" />
        </mxCell>
        <mxCell id="3ByCjqJIBNXzOxceq1T8-100" value="&lt;div&gt;enable =&lt;/div&gt;&lt;div&gt;debounce_out&lt;/div&gt;" style="edgeStyle=orthogonalEdgeStyle;rounded=0;orthogonalLoop=1;jettySize=auto;html=1;exitX=0.25;exitY=0;exitDx=0;exitDy=0;entryX=0.25;entryY=0;entryDx=0;entryDy=0;" edge="1" parent="1" source="3ByCjqJIBNXzOxceq1T8-86" target="3ByCjqJIBNXzOxceq1T8-79">
          <mxGeometry relative="1" as="geometry" />
        </mxCell>
        <mxCell id="3ByCjqJIBNXzOxceq1T8-102" value="enable = sync_out[9...8]" style="edgeStyle=orthogonalEdgeStyle;rounded=0;orthogonalLoop=1;jettySize=auto;html=1;exitX=1;exitY=0.5;exitDx=0;exitDy=0;entryX=0.25;entryY=0;entryDx=0;entryDy=0;" edge="1" parent="1" source="gU50jgJ4w8s5qQlBn3Q9-12" target="3ByCjqJIBNXzOxceq1T8-69">
          <mxGeometry relative="1" as="geometry">
            <Array as="points">
              <mxPoint x="640" y="340" />
              <mxPoint x="640" y="-300" />
              <mxPoint x="2060" y="-300" />
            </Array>
          </mxGeometry>
        </mxCell>
        <mxCell id="3ByCjqJIBNXzOxceq1T8-103" value="clk" style="edgeStyle=orthogonalEdgeStyle;rounded=0;orthogonalLoop=1;jettySize=auto;html=1;exitX=0.5;exitY=1;exitDx=0;exitDy=0;entryX=0.5;entryY=0;entryDx=0;entryDy=0;" edge="1" parent="1" source="gU50jgJ4w8s5qQlBn3Q9-36" target="3ByCjqJIBNXzOxceq1T8-86">
          <mxGeometry relative="1" as="geometry">
            <Array as="points">
              <mxPoint x="1010" y="60" />
              <mxPoint x="1010" y="-250" />
              <mxPoint x="1700" y="-250" />
            </Array>
          </mxGeometry>
        </mxCell>
        <mxCell id="3ByCjqJIBNXzOxceq1T8-104" value="clk" style="edgeStyle=orthogonalEdgeStyle;rounded=0;orthogonalLoop=1;jettySize=auto;html=1;exitX=0.5;exitY=0;exitDx=0;exitDy=0;entryX=0.5;entryY=0;entryDx=0;entryDy=0;" edge="1" parent="1" source="3ByCjqJIBNXzOxceq1T8-86" target="3ByCjqJIBNXzOxceq1T8-79">
          <mxGeometry relative="1" as="geometry">
            <Array as="points">
              <mxPoint x="1700" y="-210" />
              <mxPoint x="1920" y="-210" />
            </Array>
          </mxGeometry>
        </mxCell>
      </root>
    </mxGraphModel>
  </diagram>
</mxfile>
